<?xml version="1.0" standalone="no"?>
<!DOCTYPE svg PUBLIC "-//W3C//DTD SVG 20010904//EN"
 "http://www.w3.org/TR/2001/REC-SVG-20010904/DTD/svg10.dtd">
<svg version="1.0" xmlns="http://www.w3.org/2000/svg"
 width="512.000000pt" height="512.000000pt" viewBox="0 0 512.000000 512.000000"
 preserveAspectRatio="xMidYMid meet">

<g transform="translate(0.000000,512.000000) scale(0.100000,-0.100000)"
fill="#000000" stroke="none">
<path d="M2355 5110 c-1007 -85 -1878 -759 -2210 -1710 -142 -409 -178 -874
-99 -1305 88 -481 324 -942 666 -1300 402 -421 919 -685 1513 -771 165 -24
505 -24 670 0 471 68 900 252 1265 540 97 77 319 299 396 396 288 365 472 794
540 1265 24 165 24 505 0 670 -58 399 -190 752 -401 1070 -413 624 -1053 1025
-1801 1130 -129 19 -409 26 -539 15z m69 -241 c3 -17 6 -55 6 -83 0 -142 71
-485 140 -681 231 -650 749 -1202 1380 -1473 276 -119 534 -180 874 -208 l79
-6 -7 -76 c-39 -434 -215 -872 -494 -1231 -86 -110 -283 -307 -393 -393 -359
-279 -797 -455 -1231 -494 l-76 -7 -6 54 c-3 30 -8 88 -11 129 -13 174 -65
412 -130 599 -181 521 -532 969 -1005 1283 -142 95 -358 205 -501 257 -254 92
-422 127 -762 157 l-67 6 0 36 c0 20 7 82 15 137 59 411 218 791 470 1120 94
123 309 335 430 426 339 253 694 403 1100 464 50 7 111 13 136 14 44 1 47 0
53 -30z m436 17 c259 -35 490 -105 725 -220 256 -126 435 -255 641 -463 257
-258 444 -562 558 -904 66 -198 116 -463 116 -617 l0 -54 -87 7 c-351 27 -653
112 -943 267 -580 309 -1006 851 -1165 1483 -34 134 -59 288 -71 433 l-7 82
64 0 c35 0 111 -7 169 -14z m-2355 -2422 c493 -73 944 -301 1300 -659 407
-408 630 -903 680 -1507 l7 -78 -54 0 c-81 0 -219 18 -358 46 -340 68 -702
239 -984 464 -114 90 -309 290 -397 405 -184 243 -311 496 -394 780 -49 170
-85 387 -85 514 l0 64 93 -7 c50 -4 137 -14 192 -22z"/>
</g>
</svg>
